Coordinates
version=1
nRows=16
nColumns=36
inDegrees=yes

Units are S.I. units (second, meters, Newtons, ...)
If the header above contains a line with 'inDegrees', this indicates whether rotational values are in degrees (yes) or radians (no).

endheader
time	pelvis_tilt	pelvis_list	pelvis_rotation	pelvis_tx	pelvis_ty	pelvis_tz	hip_flexion_r	hip_adduction_r	hip_rotation_r	knee_angle_r	knee_angle_r_beta	ankle_angle_r	subtalar_angle_r	mtp_angle_r	hip_flexion_l	hip_adduction_l	hip_rotation_l	knee_angle_l	knee_angle_l_beta	ankle_angle_l	subtalar_angle_l	mtp_angle_l	lumbar_extension	lumbar_bending	lumbar_rotation	arm_flex_r	arm_add_r	arm_rot_r	elbow_flex_r	pro_sup_r	arm_flex_l	arm_add_l	arm_rot_l	elbow_flex_l	pro_sup_l
      5.80000000	     -5.44273288	      1.44807366	      1.03837465	      0.27365653	      0.90047638	     -0.06420566	     18.30357590	     -9.63742004	     -7.48174510	     26.60567715	      0.46435667	     10.26752897	     -9.62933026	     -7.49999987	     18.30231383	     -6.91144094	    -10.16918679	     28.09309660	      0.49031703	     10.65196776	     -1.81536023	     -7.49999987	    -12.30954617	      1.94077846	      2.25628608	     -4.85709734	    -10.42602699	     -4.49123390	     43.75833405	     71.67541974	    170.96598081	   -167.49935571	    184.71237331	     59.61952755	     70.74382426
      5.80416670	     -5.48004032	      1.47544182	      0.98757152	      0.27377160	      0.90262571	     -0.06547005	     17.59947424	     -9.52453488	     -7.50940914	     25.30177121	      0.44159921	      9.70527252	     -9.73784031	     -7.49999987	     17.62930613	     -6.65762708	    -10.10475235	     26.92496354	      0.46992926	     10.09498940	     -2.00596126	     -7.49999987	    -11.99261165	      1.87389712	      2.20324031	     -4.82484730	    -10.32915454	     -4.27780260	     43.34405801	     71.90066691	    170.78364924	   -167.45576422	    184.65391292	     59.37547472	     70.92565126
      5.80833330	     -5.61923783	      1.54057634	      1.01174227	      0.27438807	      0.90678225	     -0.06852336	     16.94382481	     -9.54438339	     -7.60724310	     23.85521968	      0.41635213	      8.88888702	     -9.65171716	     -7.49999987	     16.97595719	     -6.24643812	    -10.09899409	     25.50493536	      0.44514510	      9.33627354	     -2.23283688	     -7.49999987	    -11.56333415	      1.81365242	      2.08260183	     -4.86120357	    -10.24299751	     -4.08730071	     43.10970712	     72.06382391	    170.57114960	   -167.46623278	    184.60521115	     59.12367954	     71.02182298
      5.81250000	     -5.72052882	      1.55787393	      0.95905373	      0.27646315	      0.90589814	     -0.06744855	     16.36767984	     -9.48046411	     -7.71355431	     22.66883348	      0.39564578	      8.48085456	     -9.40597817	     -7.49999987	     16.36879115	     -6.03699946	    -10.23887336	     24.35550945	      0.42508383	      8.97901742	     -2.25923986	     -7.49999987	    -11.12293623	      1.78437151	      2.11916045	     -4.97826408	    -10.14762832	     -4.01977269	     42.86815421	     72.17949195	    170.45420217	   -167.40478016	    184.76733945	     58.80617102	     71.11464346
      5.81666670	     -5.62826638	      1.60046328	      0.87454383	      0.27704633	      0.90584038	     -0.06818815	     15.71460447	     -9.50732848	     -7.84906737	     21.75370171	      0.37967372	      8.04389363	     -9.46774128	     -7.49999987	     15.74191483	     -5.75293191	    -10.06385069	     23.53353158	      0.41073761	      8.54232610	     -2.67550335	     -7.49999987	    -10.96590399	      1.76046518	      1.97960970	     -4.83029077	    -10.11727413	     -3.80112744	     42.46598987	     72.48737456	    170.25588926	   -167.46783649	    184.63330083	     58.49454388	     71.37185436
      5.82083330	     -5.89053390	      1.67037072	      0.72280185	      0.27739114	      0.90767839	     -0.06900401	     15.51810878	     -9.54209372	     -7.92847990	     20.85839922	      0.36404774	      7.90002128	     -9.13667788	     -7.49999987	     15.46630130	     -5.45536432	     -9.96928823	     22.68200208	      0.39587562	      8.44977840	     -2.77506078	     -7.49999987	    -10.35374808	      1.68359378	      2.10171072	     -5.11212590	    -10.09515925	     -3.75095147	     42.54851158	     72.30722484	    169.98659620	   -167.47387508	    184.67670262	     58.39974430	     71.20515898
      5.82500000	     -5.87418265	      1.65459693	      0.66527425	      0.27666927	      0.91123264	     -0.06785884	     14.93432179	     -9.37370179	     -7.95564449	     19.78053053	      0.34523539	      7.42433268	     -8.74332758	     -7.49999987	     14.89130460	     -5.27013226	     -9.86054270	     21.63000167	      0.37751475	      7.90824375	     -2.96335218	     -7.49999987	    -10.23747227	      1.67580968	      2.13260547	     -5.11354100	    -10.01232606	     -3.69592682	     42.24225136	     72.37742435	    170.07880286	   -167.43939225	    184.95251006	     57.92637070	     71.26908082
      5.82916670	     -5.77902332	      1.68067568	      0.61740455	      0.27800268	      0.91188750	     -0.06796760	     14.30166545	     -9.25767803	     -8.00792307	     18.79282757	      0.32799672	      6.94665668	     -8.66816782	     -7.49999987	     14.20464139	     -5.00542918	     -9.50874782	     20.57648212	      0.35912736	      7.26027333	     -3.62136091	     -7.49999987	    -10.18671366	      1.58282954	      1.91812173	     -4.91104289	     -9.93852167	     -3.43917319	     41.84288467	     72.58753948	    169.96280303	   -167.36452333	    184.87874266	     57.65770965	     71.48816499
      5.83333330	     -5.79952422	      1.72129393	      0.53536235	      0.27833358	      0.91335836	     -0.06918583	     13.80818845	     -9.18053233	     -8.04378136	     17.82459999	      0.31109796	      6.43593665	     -8.56232924	     -7.49999987	     13.68220532	     -4.76913128	     -9.36422730	     19.60374612	      0.34214992	      6.75709949	     -4.00331377	     -7.49999987	     -9.95279153	      1.49652130	      1.88557638	     -4.91347961	     -9.84294836	     -3.28585815	     41.66024425	     72.52457181	    169.85764434	   -167.36656556	    184.94261351	     57.46433299	     71.44114416
      5.83750000	     -5.90620168	      1.75081680	      0.41481104	      0.27663928	      0.90947007	     -0.06839349	     13.67084629	     -9.13364923	     -7.94876393	     17.20711358	      0.30032079	      6.20253181	     -8.86386349	     -7.49999987	     13.53715650	     -4.59142987	     -9.08785839	     19.03186749	      0.33216875	      6.36532583	     -4.64467741	     -7.49999987	     -9.68342871	      1.43831930	      2.10418249	     -5.10243758	     -9.80109340	     -3.25054695	     41.69060968	     72.06248620	    170.06944860	   -167.17886321	    185.65871705	     57.04770770	     71.04449181
      5.84166670	     -6.02563136	      1.75448052	      0.43955035	      0.27681064	      0.91332933	     -0.06853867	     13.39525049	     -9.07578974	     -7.98173782	     16.47515056	      0.28754562	      6.10203903	     -8.38114902	     -7.49999987	     13.33154919	     -4.42965612	     -8.76478952	     18.33879305	      0.32007232	      6.00722904	     -5.01077240	     -7.49999987	     -9.41624541	      1.41316571	      1.94415403	     -5.06090178	     -9.69174638	     -3.15662183	     41.43948457	     72.04706703	    170.01182658	   -167.13186089	    185.80530908	     56.81554478	     71.03938819
      5.84583330	     -6.38189822	      1.72061112	      0.40469046	      0.27715334	      0.91182989	     -0.06764647	     13.51238632	     -8.90577799	     -7.68876182	     15.91371310	      0.27774669	      6.09287623	     -8.38507181	     -7.49999987	     13.44740138	     -4.36538262	     -8.55558958	     17.83020013	      0.31119570	      6.00941944	     -5.12516500	     -7.49999987	     -8.88965346	      1.34672655	      1.83229679	     -5.30418579	     -9.58514094	     -3.08788319	     41.79001032	     71.75557705	    169.65100159	   -167.08621084	    185.48521900	     57.21345767	     70.77839919
      5.85000000	     -6.31611238	      1.71126650	      0.45631499	      0.27677689	      0.91239778	     -0.06795696	     13.03252343	     -8.83583309	     -7.77433793	     15.22345689	      0.26569945	      5.96824329	     -7.88338666	     -7.49999987	     13.07842616	     -4.21518995	     -8.17303741	     17.18606220	      0.29995337	      5.48475957	     -5.77964048	     -7.49999987	     -8.80542458	      1.32400913	      1.88063441	     -5.07471973	     -9.51296352	     -2.75878965	     40.98991183	     71.03448793	    170.00480332	   -166.93649833	    186.22920563	     56.49194251	     70.29609333
      5.85416670	     -6.39968998	      1.68561968	      0.41104743	      0.27770553	      0.91297704	     -0.06558151	     12.71638957	     -8.60596826	     -7.56159062	     14.51799490	      0.25338681	      5.87586782	     -7.76668583	     -7.49999987	     12.79782599	     -4.20846116	     -8.05161296	     16.55854737	      0.28900117	      5.29664113	     -5.92395272	     -7.49999987	     -8.55942256	      1.23342333	      1.87696189	     -5.10272203	     -9.38167441	     -2.67257388	     40.94962046	     70.88654387	    169.79648992	   -166.93565003	    185.93424731	     56.56424199	     70.17550150
      5.85833330	     -6.46885159	      1.65970375	      0.38967743	      0.27796655	      0.91200113	     -0.06670641	     12.44057005	     -8.47935013	     -7.53380389	     13.96333969	      0.24370625	      5.89362045	     -7.49972106	     -7.49999987	     12.58266585	     -4.19411025	     -7.99728266	     16.06408761	      0.28037122	      5.06263561	     -6.20157884	     -7.49999987	     -8.30088538	      1.21343602	      1.81748153	     -5.13760044	     -9.27977614	     -2.55562460	     40.85623465	     70.46550874	    169.62879737	   -166.97253554	    185.75882241	     56.46913535	     69.84143229
      5.86250000	     -6.65435646	      1.66439224	      0.34855562	      0.27947545	      0.91333501	     -0.06823192	     12.21172062	     -8.41094377	     -7.43079181	     13.25499016	      0.23134322	      5.68450291	     -7.34410831	     -7.49999987	     12.42526674	     -4.10896717	     -7.95162262	     15.48434821	      0.27025286	      4.73266715	     -6.39472187	     -7.49999987	     -7.79020066	      1.18593476	      1.72663736	     -5.13407506	     -9.18236870	     -2.39850349	     40.42215067	     70.45228679	    169.48897437	   -166.93440212	    185.90153285	     56.17494166	     69.92527574
